<?xml version="1.0" standalone="no"?>
<!DOCTYPE svg PUBLIC "-//W3C//DTD SVG 20010904//EN"
 "http://www.w3.org/TR/2001/REC-SVG-20010904/DTD/svg10.dtd">
<svg version="1.0" xmlns="http://www.w3.org/2000/svg"
 width="200.000000pt" height="150.000000pt" viewBox="0 0 200.000000 150.000000"
 preserveAspectRatio="xMidYMid meet">

<g transform="translate(0.000000,150.000000) scale(0.100000,-0.100000)"
fill="#000000" stroke="none">
<path d="M836 1340 c-79 -13 -193 -45 -268 -75 -36 -15 -81 -25 -110 -25 -82
0 -154 -40 -195 -108 -13 -20 -23 -47 -23 -59 0 -16 -11 -28 -37 -42 -175 -90
-204 -386 -45 -456 27 -12 45 -30 61 -60 53 -101 216 -229 363 -285 154 -60
236 -74 418 -74 182 0 264 14 418 74 149 57 302 178 364 287 18 32 38 53 52
57 39 10 86 66 102 125 28 95 0 203 -76 285 -22 24 -54 49 -71 56 -20 9 -38
29 -54 61 -36 70 -123 129 -191 129 -15 0 -65 16 -113 35 -140 56 -238 76
-396 80 -77 2 -167 0 -199 -5z m336 -45 c88 -13 234 -54 267 -75 11 -6 10 -13
-7 -35 -12 -15 -24 -42 -28 -61 -9 -49 35 -135 88 -172 l40 -28 2 -74 c2 -58
9 -88 30 -132 31 -66 99 -131 158 -150 l40 -14 -46 -61 c-164 -223 -530 -342
-889 -288 -234 35 -436 142 -543 287 l-45 62 47 17 c61 23 118 79 152 149 23
47 27 68 27 142 l0 86 34 18 c53 29 84 77 89 139 3 43 0 59 -17 83 l-21 30 70
25 c164 62 365 80 552 52z"/>
<path d="M599 977 c-44 -29 -69 -82 -82 -171 -14 -95 -3 -159 33 -199 27 -30
32 -32 98 -32 39 0 73 2 75 5 3 3 8 22 12 43 l7 38 -61 -7 -61 -7 -15 36 c-26
64 -23 67 58 67 119 0 117 -1 117 92 0 84 -15 129 -49 148 -34 17 -96 12 -132
-13z m89 -59 c7 -7 12 -31 12 -55 l0 -43 -50 0 c-54 0 -58 6 -40 57 18 46 54
65 78 41z"/>
<path d="M1289 977 c-44 -29 -69 -82 -82 -171 -14 -95 -3 -159 33 -199 27 -30
32 -32 98 -32 39 0 73 2 75 5 3 3 8 22 12 43 l7 38 -61 -7 -61 -7 -15 36 c-27
64 -24 67 64 67 113 0 111 -2 111 92 0 84 -15 129 -49 148 -34 17 -96 12 -132
-13z m89 -59 c7 -7 12 -31 12 -54 l0 -42 -50 -4 c-55 -3 -60 4 -40 59 18 46
54 65 78 41z"/>
<path d="M834 546 c-62 -29 -101 -66 -120 -112 -44 -106 88 -153 222 -79 l63
34 66 -34 c145 -76 279 -19 221 93 -21 40 -55 68 -116 96 -48 22 -69 25 -171
25 -100 0 -122 -3 -165 -23z"/>
</g>
</svg>
